<!DOCTYPE svg PUBLIC "-//W3C//DTD SVG 1.1//EN" "http://www.w3.org/Graphics/SVG/1.1/DTD/svg11.dtd">
<!-- Uploaded to: SVG Repo, www.svgrepo.com, Transformed by: SVG Repo Mixer Tools -->
<svg fill="#ffffff" width="800px" height="800px" viewBox="0 0 256 256" id="Flat" xmlns="http://www.w3.org/2000/svg" stroke="#ffffff">
<g id="SVGRepo_bgCarrier" stroke-width="0"/>
<g id="SVGRepo_tracerCarrier" stroke-linecap="round" stroke-linejoin="round"/>
<g id="SVGRepo_iconCarrier"> <path d="M228,48a20.02229,20.02229,0,0,0-20-20H48a19.89568,19.89568,0,0,0-13.18359,4.999,12.24037,12.24037,0,0,0-.959.8584,12.05585,12.05585,0,0,0-.8584.959A19.89568,19.89568,0,0,0,28,48V208a20.02229,20.02229,0,0,0,20,20H208a19.89568,19.89568,0,0,0,13.18359-4.999,11.64461,11.64461,0,0,0,1.81739-1.81739A19.89568,19.89568,0,0,0,228,208ZM204,187.0293,68.9707,52H204ZM52,68.9707,187.0293,204H52Z"/> </g>
</svg>